<svg width="2314" height="422" viewBox="0 0 2314 422" fill="none" xmlns="http://www.w3.org/2000/svg">
<g clip-path="url(#clip0_7053_2930)">
<mask id="mask0_7053_2930" style="mask-type:luminance" maskUnits="userSpaceOnUse" x="535" y="51" width="1779" height="367">
<path d="M2313.64 51.6855H535.801V417.658H2313.64V51.6855Z" fill="white"/>
</mask>
<g mask="url(#mask0_7053_2930)">
<path d="M661.52 336.106H745.192V280.585H690.528C674.332 280.585 669.144 275.518 669.144 259.721V181.991H744.465V136.948H669.144V77.1104H597.05V136.948H538.653V181.991H597.05V268.699C597.05 317.839 614.512 336.106 661.52 336.106Z" fill="#112338"/>
<path d="M921.763 130.227H884.466C802.819 130.227 763.118 164.978 763.118 236.546C763.118 308.114 802.819 342.866 884.466 342.866H921.763C1003.41 342.866 1043.11 308.114 1043.11 236.546C1043.11 164.978 1003.44 130.227 921.763 130.227ZM908.983 291.067H897.31C850.902 291.067 836.003 277.836 836.003 236.546C836.003 195.257 850.902 182.026 897.31 182.026H908.983C955.39 182.026 970.29 195.257 970.29 236.546C970.29 277.836 955.39 291.067 908.983 291.067Z" fill="#112338"/>
<path d="M1245.2 336.111H1341.94L1216.09 235.453L1334.19 136.985H1239.6L1151.85 214.809H1139.73V136.641H1068.05V336.174H1139.73V255.378H1151.12L1245.26 336.174L1245.2 336.111Z" fill="#112338"/>
<path d="M1460.47 342.868H1517.35C1557.53 342.868 1593.37 334.517 1620.95 318.752L1621.68 318.314L1649.55 336.112H1719.46V329.731L1657.55 288.848L1658.57 287.628C1676.28 266.327 1685.8 238.957 1686.09 208.397H1621.52C1621.33 227.478 1616.94 243.242 1608.49 255.285L1607.7 256.411L1529.44 204.612L1532.35 203.767C1587.86 187.346 1611.56 164.261 1611.56 126.569C1611.56 79.6809 1576.03 51.6855 1516.56 51.6855H1478.12C1419.6 51.6855 1384.65 79.1491 1384.65 125.068C1384.65 149.716 1395.69 167.858 1424.03 189.785L1426.18 191.443L1417.55 194.133C1366.65 209.773 1345.86 231.669 1345.86 269.83C1345.86 320.347 1381.2 342.837 1460.44 342.837L1460.47 342.868ZM1490.21 96.7596H1505.3C1532.63 96.7596 1543.23 104.705 1543.23 125.13C1543.23 147.026 1530.92 159.663 1500.81 168.734L1483.53 173.802L1482.96 173.332C1461.45 156.817 1453.04 143.273 1453.04 125.068C1453.04 104.673 1463.45 96.697 1490.24 96.697L1490.21 96.7596ZM1452.53 227.008L1471.64 221.597L1472.18 221.941L1568.19 283.844L1565.21 284.719C1549.52 289.286 1531.14 291.538 1509.09 291.538H1466.93C1433.74 291.538 1416.91 281.247 1416.91 260.947C1416.91 244.556 1427.6 234.39 1452.56 227.071L1452.53 227.008Z" fill="#112338"/>
<path d="M1842.56 417.654H1899.06C1976.94 417.654 2008.73 394.882 2008.73 339.017V136.95H1940.02V159.252L1937.55 156.687C1919.84 138.357 1894.5 130.193 1855.37 130.193H1836.14C1765.12 130.193 1730.6 162.255 1730.6 228.287C1730.6 294.318 1765.02 326.38 1835.76 326.38H1850.85C1889.09 326.38 1919.33 317.215 1936.07 300.605L1938.5 298.197V339.392C1938.5 363.321 1924.33 372.236 1886.21 372.236H1854.96C1819.02 372.236 1807.7 365.479 1805.8 342.332H1732.53C1734.53 395.821 1766.54 417.685 1842.53 417.685L1842.56 417.654ZM1878.71 271.234H1864.04C1820.19 271.234 1803.11 259.191 1803.11 228.287C1803.11 197.382 1820.19 185.339 1864.04 185.339H1879.13C1921.33 185.339 1938.53 197.664 1938.53 227.911C1938.53 258.159 1921.2 271.202 1878.71 271.202V271.234Z" fill="#112338"/>
<path d="M2192.3 130.227H2155C2073.35 130.227 2033.65 164.978 2033.65 236.546C2033.65 308.114 2073.35 342.866 2155 342.866H2192.3C2273.94 342.866 2313.64 308.114 2313.64 236.546C2313.64 164.978 2273.98 130.227 2192.3 130.227ZM2179.52 291.067H2167.84C2121.44 291.067 2106.54 277.836 2106.54 236.546C2106.54 195.257 2121.44 182.026 2167.84 182.026H2179.52C2225.92 182.026 2240.82 195.257 2240.82 236.546C2240.82 277.836 2225.92 291.067 2179.52 291.067Z" fill="#112338"/>
</g>
<path d="M89.981 383.148L161.696 295.689C138.002 281.739 120.666 258.404 114.909 230.847L7.95361 269.571C21.5879 316.053 50.9444 355.903 89.981 383.148Z" fill="#E86749"/>
<path d="M188.785 1.34503L193.752 113.858C199.889 112.701 206.247 112.075 212.732 112.075C218.015 112.075 223.203 112.482 228.296 113.264L229.561 0.656874C223.994 0.218958 218.395 0 212.7 0C204.602 0 196.63 0.469196 188.753 1.34503H188.785Z" fill="#E86749"/>
<path d="M-0.00830078 197.339L112.894 212.197C112.894 211.727 112.894 211.258 112.894 210.789C112.894 198.215 115.267 186.172 119.632 175.099L8.53292 150.106C3.94597 165.215 1.03563 181.011 -0.00830078 197.339Z" fill="#E86749"/>
<path d="M425.696 202.102C425.284 192.374 424.241 182.834 422.564 173.481L309.345 185.774C311.465 193.751 312.572 202.134 312.572 210.767C312.572 211.987 312.572 213.175 312.509 214.395L425.696 202.102Z" fill="#E86749"/>
<path d="M416.056 274.254L310.019 233.121C305.906 250.669 297.08 266.403 284.933 278.977L377.905 344.008C394.766 323.582 407.831 299.997 416.056 274.254Z" fill="#E86749"/>
<path d="M322.25 391.62L270.465 291.306C254.142 302.754 234.212 309.51 212.701 309.51C200.838 309.51 189.45 307.446 178.884 303.692L156.487 414.141C174.392 418.989 193.246 421.554 212.733 421.554C252.782 421.554 290.268 410.606 322.282 391.62H322.25Z" fill="#E86749"/>
<path d="M128.107 158.34C139.242 140.792 155.819 126.966 175.495 119.146L118.206 21.8037C87.8368 36.6929 61.5488 58.4948 41.5244 85.1764L128.107 158.34Z" fill="#E86749"/>
<path d="M300.823 18.8008L246.729 117.926C271.372 126.747 291.522 144.921 302.784 168.068L397.244 105.164C375.068 67.3469 341.346 36.9743 300.823 18.8008Z" fill="#E86749"/>
</g>
<defs>
<clipPath id="clip0_7053_2930">
<rect width="2313.66" height="421.557" fill="white"/>
</clipPath>
</defs>
</svg>
